<svg width="73" height="74" viewBox="0 0 73 74" fill="none" xmlns="http://www.w3.org/2000/svg">
<mask id="path-3-inside-1_2060_944" fill="white">
<path d="M0 37C0 17.1178 16.1178 1 36 1V73C16.1178 73 0 56.8823 0 37Z"/>
</mask>
<path d="M0 37C0 17.1178 16.1178 1 36 1V73C16.1178 73 0 56.8823 0 37Z" fill="white"/>
<path d="M-1 37C-1 16.5655 15.5655 0 36 0V2C16.67 2 1 17.67 1 37H-1ZM36 74C15.5655 74 -1 57.4345 -1 37H1C1 56.33 16.67 72 36 72V74ZM36 74C15.5655 74 -1 57.4345 -1 37C-1 16.5655 15.5655 0 36 0V2C16.67 2 1 17.67 1 37C1 56.33 16.67 72 36 72V74ZM36 1V73V1Z" fill="black" mask="url(#path-3-inside-1_2060_944)"/>
<mask id="path-5-outside-2_2060_944" maskUnits="userSpaceOnUse" x="36" y="0" width="37" height="74" fill="black">
<rect fill="white" x="36" width="37" height="74"/>
<path d="M36 1C55.8822 1 72 17.1178 72 37C72 56.8823 55.8822 73 36 73V1Z"/>
</mask>
<path d="M36 1C55.8822 1 72 17.1178 72 37C72 56.8823 55.8822 73 36 73V1Z" fill="black"/>
<path d="M36 0C56.4345 0 73 16.5655 73 37H71C71 17.67 55.33 2 36 2V0ZM73 37C73 57.4345 56.4345 74 36 74V72C55.33 72 71 56.33 71 37H73ZM36 73V1V73ZM36 0C56.4345 0 73 16.5655 73 37C73 57.4345 56.4345 74 36 74V72C55.33 72 71 56.33 71 37C71 17.67 55.33 2 36 2V0Z" fill="white" mask="url(#path-5-outside-2_2060_944)"/>
<g style="mix-blend-mode:difference" clip-path="url(#clip0_2060_944)">
<path d="M36 16C36 15.2044 36.3161 14.4413 36.8787 13.8787C37.4413 13.3161 38.2044 13 39 13H57C57.7957 13 58.5587 13.3161 59.1213 13.8787C59.6839 14.4413 60 15.2044 60 16V58C60 58.7957 59.6839 59.5587 59.1213 60.1213C58.5587 60.6839 57.7957 61 57 61H39C38.2044 61 37.4413 60.6839 36.8787 60.1213C36.3161 59.5587 36 58.7957 36 58V16ZM39 56.5C39 56.8978 39.158 57.2794 39.4393 57.5607C39.7206 57.842 40.1022 58 40.5 58C40.8978 58 41.2794 57.842 41.5607 57.5607C41.842 57.2794 42 56.8978 42 56.5C42 56.1022 41.842 55.7206 41.5607 55.4393C41.2794 55.158 40.8978 55 40.5 55C40.1022 55 39.7206 55.158 39.4393 55.4393C39.158 55.7206 39 56.1022 39 56.5ZM45 56.5C45 56.8978 45.158 57.2794 45.4393 57.5607C45.7206 57.842 46.1022 58 46.5 58C46.8978 58 47.2794 57.842 47.5607 57.5607C47.842 57.2794 48 56.8978 48 56.5C48 56.1022 47.842 55.7206 47.5607 55.4393C47.2794 55.158 46.8978 55 46.5 55C46.1022 55 45.7206 55.158 45.4393 55.4393C45.158 55.7206 45 56.1022 45 56.5ZM40.5 16C40.1022 16 39.7206 16.158 39.4393 16.4393C39.158 16.7206 39 17.1022 39 17.5C39 17.8978 39.158 18.2794 39.4393 18.5607C39.7206 18.842 40.1022 19 40.5 19H55.5C55.8978 19 56.2794 18.842 56.5607 18.5607C56.842 18.2794 57 17.8978 57 17.5C57 17.1022 56.842 16.7206 56.5607 16.4393C56.2794 16.158 55.8978 16 55.5 16H40.5ZM39 23.5C39 23.8978 39.158 24.2794 39.4393 24.5607C39.7206 24.842 40.1022 25 40.5 25H55.5C55.8978 25 56.2794 24.842 56.5607 24.5607C56.842 24.2794 57 23.8978 57 23.5C57 23.1022 56.842 22.7206 56.5607 22.4393C56.2794 22.158 55.8978 22 55.5 22H40.5C40.1022 22 39.7206 22.158 39.4393 22.4393C39.158 22.7206 39 23.1022 39 23.5ZM16.5 19C15.3065 19 14.1619 19.4741 13.318 20.318C12.4741 21.1619 12 22.3065 12 23.5V44.5C12 45.6935 12.4741 46.8381 13.318 47.682C14.1619 48.5259 15.3065 49 16.5 49H30V55H28.5C28.1022 55 27.7206 55.158 27.4393 55.4393C27.158 55.7206 27 56.1022 27 56.5C27 56.8978 27.158 57.2794 27.4393 57.5607C27.7206 57.842 28.1022 58 28.5 58H36V46H16.5C16.1022 46 15.7206 45.842 15.4393 45.5607C15.158 45.2794 15 44.8978 15 44.5V23.5C15 23.1022 15.158 22.7206 15.4393 22.4393C15.7206 22.158 16.1022 22 16.5 22H36V19H16.5Z" fill="white"/>
</g>
<defs>
<clipPath id="clip0_2060_944">
<rect width="48" height="48" fill="white" transform="translate(12 13)"/>
</clipPath>
</defs>
</svg>
